<svg xmlns="http://www.w3.org/2000/svg" width="13.41" height="13.397" viewBox="0 0 13.41 13.397">
  <g id="Сгруппировать_45" data-name="Сгруппировать 45" transform="translate(-2709.586 -1024.876)">
    <path id="Контур_450" data-name="Контур 450" d="M174.54,270.37" transform="translate(2545.29 759.4)" fill="none" stroke="#312783" stroke-miterlimit="10" stroke-width="1"/>
    <path id="Контур_451" data-name="Контур 451" d="M171,272.18s-.48,6,2.88,6S171,272.18,171,272.18Z" transform="translate(2545.29 759.4)" fill="#2d2e83"/>
    <path id="Контур_452" data-name="Контур 452" d="M171,272.18s.48-6-2.89-6S171,272.18,171,272.18Z" transform="translate(2545.29 759.4)" fill="#2d2e83"/>
    <path id="Контур_453" data-name="Контур 453" d="M171,272.18s3.9,4.59,6.29,2.2S171,272.18,171,272.18Z" transform="translate(2545.29 759.4)" fill="#2d2e83"/>
    <path id="Контур_454" data-name="Контур 454" d="M171,272.18s-3.91-4.59-6.29-2.21S171,272.18,171,272.18Z" transform="translate(2545.29 759.4)" fill="#2d2e83"/>
    <path id="Контур_455" data-name="Контур 455" d="M171,272.18s6,.48,6-2.89S171,272.18,171,272.18Z" transform="translate(2545.29 759.4)" fill="#2d2e83"/>
    <path id="Контур_456" data-name="Контур 456" d="M171,272.18s-6-.49-6,2.88S171,272.18,171,272.18Z" transform="translate(2545.29 759.4)" fill="#2d2e83"/>
    <path id="Контур_457" data-name="Контур 457" d="M171,272.18s4.59-3.91,2.2-6.29S171,272.18,171,272.18Z" transform="translate(2545.29 759.4)" fill="#2d2e83"/>
    <path id="Контур_458" data-name="Контур 458" d="M171,272.18s-4.59,3.9-2.21,6.28S171,272.18,171,272.18Z" transform="translate(2545.29 759.4)" fill="#2d2e83"/>
    <path id="Контур_459" data-name="Контур 459" d="M174.36,270.46" transform="translate(2545.29 759.4)" fill="#1d71b8" stroke="#312783" stroke-miterlimit="10" stroke-width="1"/>
    <path id="Контур_460" data-name="Контур 460" d="M171,272.18s-.46,5.69,2.73,5.69S171,272.18,171,272.18Z" transform="translate(2545.29 759.4)" fill="#1d71b8"/>
    <path id="Контур_461" data-name="Контур 461" d="M171,272.18s.46-5.7-2.73-5.7S171,272.18,171,272.18Z" transform="translate(2545.29 759.4)" fill="#1d71b8"/>
    <path id="Контур_462" data-name="Контур 462" d="M171,272.18s3.7,4.35,6,2.09S171,272.18,171,272.18Z" transform="translate(2545.29 759.4)" fill="#1d71b8"/>
    <path id="Контур_463" data-name="Контур 463" d="M171,272.18s-3.7-4.35-6-2.1S171,272.18,171,272.18Z" transform="translate(2545.29 759.4)" fill="#1d71b8"/>
    <path id="Контур_464" data-name="Контур 464" d="M171,272.18s5.69.45,5.69-2.74S171,272.18,171,272.18Z" transform="translate(2545.29 759.4)" fill="#1d71b8"/>
    <path id="Контур_465" data-name="Контур 465" d="M171,272.18s-5.69-.46-5.69,2.73S171,272.18,171,272.18Z" transform="translate(2545.29 759.4)" fill="#1d71b8"/>
    <path id="Контур_466" data-name="Контур 466" d="M171,272.18s4.35-3.7,2.09-6S171,272.18,171,272.18Z" transform="translate(2545.29 759.4)" fill="#1d71b8"/>
    <path id="Контур_467" data-name="Контур 467" d="M171,272.18s-4.35,3.7-2.09,6S171,272.18,171,272.18Z" transform="translate(2545.29 759.4)" fill="#1d71b8"/>
    <path id="Контур_468" data-name="Контур 468" d="M174.05,270.44" transform="translate(2545.29 759.4)" fill="#36a9e1" stroke="#312783" stroke-miterlimit="10" stroke-width="1"/>
    <path id="Контур_469" data-name="Контур 469" d="M171,272s-.42,5.18,2.49,5.18S171,272,171,272Z" transform="translate(2545.29 759.4)" fill="#36a9e1"/>
    <path id="Контур_470" data-name="Контур 470" d="M171,272s.41-5.18-2.49-5.18S171,272,171,272Z" transform="translate(2545.29 759.4)" fill="#36a9e1"/>
    <path id="Контур_471" data-name="Контур 471" d="M171,272s3.37,4,5.42,1.9S171,272,171,272Z" transform="translate(2545.29 759.4)" fill="#36a9e1"/>
    <path id="Контур_472" data-name="Контур 472" d="M171,272s-3.37-4-5.43-1.9S171,272,171,272Z" transform="translate(2545.29 759.4)" fill="#36a9e1"/>
    <path id="Контур_473" data-name="Контур 473" d="M171,272s5.18.42,5.18-2.49S171,272,171,272Z" transform="translate(2545.29 759.4)" fill="#36a9e1"/>
    <path id="Контур_474" data-name="Контур 474" d="M171,272s-5.18-.42-5.18,2.49S171,272,171,272Z" transform="translate(2545.29 759.4)" fill="#36a9e1"/>
    <path id="Контур_475" data-name="Контур 475" d="M171,272s4-3.37,1.9-5.42S171,272,171,272Z" transform="translate(2545.29 759.4)" fill="#36a9e1"/>
    <path id="Контур_476" data-name="Контур 476" d="M171,272s-4,3.37-1.91,5.42S171,272,171,272Z" transform="translate(2545.29 759.4)" fill="#36a9e1"/>
    <path id="Контур_477" data-name="Контур 477" d="M173.66,270.64" transform="translate(2545.29 759.4)" fill="#fff" stroke="#312783" stroke-miterlimit="10" stroke-width="1"/>
    <path id="Контур_478" data-name="Контур 478" d="M171,272s-.36,4.51,2.17,4.51S171,272,171,272Z" transform="translate(2545.29 759.4)" fill="#fff"/>
    <path id="Контур_479" data-name="Контур 479" d="M171,272s.36-4.51-2.17-4.51S171,272,171,272Z" transform="translate(2545.29 759.4)" fill="#fff"/>
    <path id="Контур_480" data-name="Контур 480" d="M171,272s2.93,3.45,4.72,1.66S171,272,171,272Z" transform="translate(2545.29 759.4)" fill="#fff"/>
    <path id="Контур_481" data-name="Контур 481" d="M171,272s-2.94-3.45-4.73-1.66S171,272,171,272Z" transform="translate(2545.29 759.4)" fill="#fff"/>
    <path id="Контур_482" data-name="Контур 482" d="M171,272s4.51.36,4.51-2.17S171,272,171,272Z" transform="translate(2545.29 759.4)" fill="#fff"/>
    <path id="Контур_483" data-name="Контур 483" d="M171,272s-4.51-.36-4.51,2.17S171,272,171,272Z" transform="translate(2545.29 759.4)" fill="#fff"/>
    <path id="Контур_484" data-name="Контур 484" d="M171,272s3.45-2.94,1.66-4.73S171,272,171,272Z" transform="translate(2545.29 759.4)" fill="#fff"/>
    <path id="Контур_485" data-name="Контур 485" d="M171,272s-3.45,2.94-1.66,4.73S171,272,171,272Z" transform="translate(2545.29 759.4)" fill="#fff"/>
  </g>
</svg>
